<svg width="31" height="31" viewBox="0 0 31 31" fill="none" xmlns="http://www.w3.org/2000/svg">
<path d="M19.3103 15.8278C19.3001 15.5517 19.1955 15.3158 18.9806 15.1045L12.7907 9.15062C12.6077 8.97854 12.3938 8.88563 12.1334 8.88781C11.6047 8.89225 11.1978 9.30605 11.2022 9.83478C11.2043 10.0873 11.3089 10.3232 11.4919 10.5032L17.0612 15.8467L11.5824 21.2829C11.4024 21.466 11.3017 21.6957 11.3039 21.9561C11.3084 22.4848 11.7222 22.8918 12.2509 22.8873C12.5034 22.8852 12.7236 22.7886 12.9036 22.6135L18.9928 16.5487C19.212 16.3416 19.3126 16.104 19.3103 15.8278Z" fill="#4C56BB"/>
</svg>
