<svg width="31" height="31" viewBox="0 0 31 31" fill="none" xmlns="http://www.w3.org/2000/svg">
<path d="M19.3035 15.1917C19.2932 14.9155 19.1887 14.6796 18.9738 14.4684L12.7838 8.51446C12.6009 8.34237 12.387 8.24946 12.1266 8.25164C11.5979 8.25608 11.1909 8.66988 11.1954 9.19861C11.1975 9.45114 11.3021 9.68702 11.4851 9.867L17.0544 15.2105L11.5756 20.6468C11.3956 20.8298 11.2949 21.0595 11.2971 21.3199C11.3015 21.8487 11.7153 22.2556 12.2441 22.2511C12.4966 22.249 12.7168 22.1525 12.8968 21.9773L18.9859 15.9125C19.2052 15.7055 19.3058 15.4679 19.3035 15.1917Z" fill="#4C56BB"/>
</svg>
