<svg width="31" height="31" viewBox="0 0 31 31" fill="none" xmlns="http://www.w3.org/2000/svg">
<path d="M19.3103 15.8279C19.3001 15.5518 19.1955 15.3159 18.9806 15.1046L12.7907 9.15069C12.6077 8.9786 12.3938 8.88569 12.1334 8.88787C11.6047 8.89231 11.1978 9.30611 11.2022 9.83484C11.2043 10.0874 11.3089 10.3233 11.4919 10.5032L17.0612 15.8468L11.5824 21.283C11.4024 21.466 11.3017 21.6958 11.3039 21.9562C11.3084 22.4849 11.7222 22.8918 12.2509 22.8874C12.5034 22.8853 12.7236 22.7887 12.9036 22.6136L18.9928 16.5487C19.212 16.3417 19.3126 16.1041 19.3103 15.8279Z" fill="#4C56BB"/>
</svg>
