<svg width="31" height="31" viewBox="0 0 31 31" fill="none" xmlns="http://www.w3.org/2000/svg">
<path d="M11.2473 15.5696C11.2575 15.8457 11.3621 16.0816 11.577 16.2929L17.7669 22.2468C17.9499 22.4189 18.1638 22.5118 18.4242 22.5096C18.9529 22.5052 19.3598 22.0914 19.3554 21.5626C19.3533 21.3101 19.2487 21.0742 19.0657 20.8942L13.4964 15.5507L18.9752 10.1144C19.1552 9.93142 19.2559 9.70171 19.2537 9.44129C19.2492 8.91256 18.8354 8.50565 18.3067 8.51008C18.0542 8.5122 17.834 8.60875 17.654 8.78389L11.5649 14.8487C11.3456 15.0558 11.245 15.2934 11.2473 15.5696Z" fill="#4C56BB"/>
</svg>
