<svg width="40" height="40" viewBox="0 0 40 40" fill="none" xmlns="http://www.w3.org/2000/svg">
<rect width="40" height="40" rx="6.66667" fill="#4C9B0E"/>
<g clip-path="url(#clip0_78_369)">
<path d="M20.0002 31.6667C20.7737 31.6667 21.5156 31.3594 22.0626 30.8124C22.6095 30.2654 22.9168 29.5235 22.9168 28.75H17.0835C17.0835 29.5235 17.3908 30.2654 17.9378 30.8124C18.4847 31.3594 19.2266 31.6667 20.0002 31.6667Z" fill="white"/>
<path fill-rule="evenodd" clip-rule="evenodd" d="M20.0003 11.1304L18.838 11.3652C17.5196 11.6338 16.3346 12.3497 15.4834 13.3917C14.6322 14.4338 14.1671 15.7379 14.167 17.0833C14.167 17.9992 13.9716 20.2873 13.4976 22.5404C13.2643 23.659 12.9493 24.8242 12.5307 25.8333H27.4699C27.0514 24.8242 26.7378 23.6604 26.503 22.5404C26.0291 20.2873 25.8337 17.9992 25.8337 17.0833C25.8332 15.7381 25.368 14.4343 24.5168 13.3926C23.6657 12.3509 22.4808 11.6352 21.1626 11.3667L20.0003 11.129V11.1304ZM29.0712 25.8333C29.3964 26.4852 29.7726 27.0015 30.2087 27.2917H9.79199C10.228 27.0015 10.6043 26.4852 10.9295 25.8333C12.242 23.2083 12.7087 18.3667 12.7087 17.0833C12.7087 13.5542 15.217 10.6083 18.5493 9.93605C18.5289 9.73327 18.5513 9.52848 18.615 9.33488C18.6786 9.14128 18.7821 8.96318 18.9189 8.81205C19.0556 8.66092 19.2225 8.54012 19.4087 8.45745C19.595 8.37478 19.7965 8.33206 20.0003 8.33206C20.2041 8.33206 20.4057 8.37478 20.5919 8.45745C20.7782 8.54012 20.9451 8.66092 21.0818 8.81205C21.2185 8.96318 21.322 9.14128 21.3857 9.33488C21.4493 9.52848 21.4717 9.73327 21.4514 9.93605C23.0997 10.2713 24.5815 11.1659 25.6459 12.4684C26.7102 13.7709 27.2918 15.4013 27.292 17.0833C27.292 18.3667 27.7587 23.2083 29.0712 25.8333Z" fill="white"/>
<circle cx="25.8337" cy="14.1667" r="4.16667" fill="#FFAB7B"/>
</g>
<defs>
<clipPath id="clip0_78_369">
<rect width="23.3333" height="23.3333" fill="white" transform="translate(8.3335 8.33334)"/>
</clipPath>
</defs>
</svg>
