<svg width="24" height="25" viewBox="0 0 24 25" fill="none" xmlns="http://www.w3.org/2000/svg">
<rect width="24" height="24.1188" rx="12" transform="matrix(1 0 0 -1 0 24.1188)" fill="white" fill-opacity="0.15"/>
<path fill-rule="evenodd" clip-rule="evenodd" d="M8.22678 10.2077C8.27903 10.2601 8.3411 10.3016 8.40944 10.33C8.47778 10.3583 8.55104 10.3729 8.62503 10.3729C8.69902 10.3729 8.77228 10.3583 8.84062 10.33C8.90895 10.3016 8.97103 10.2601 9.02328 10.2077L12 7.22979L14.9768 10.2077C15.0824 10.3133 15.2257 10.3726 15.375 10.3726C15.5244 10.3726 15.6677 10.3133 15.7733 10.2077C15.8789 10.102 15.9382 9.95879 15.9382 9.80942C15.9382 9.66005 15.8789 9.51679 15.7733 9.41117L12.3983 6.03617C12.346 5.98379 12.284 5.94222 12.2156 5.91387C12.1473 5.88551 12.074 5.87091 12 5.87091C11.926 5.87091 11.8528 5.88551 11.7844 5.91387C11.7161 5.94222 11.654 5.98379 11.6018 6.03617L8.22678 9.41117C8.17439 9.46342 8.13283 9.52549 8.10448 9.59383C8.07612 9.66217 8.06152 9.73543 8.06152 9.80942C8.06152 9.88341 8.07612 9.95667 8.10448 10.025C8.13283 10.0933 8.17439 10.1554 8.22678 10.2077Z" fill="white"/>
<path fill-rule="evenodd" clip-rule="evenodd" d="M12 18.2469C12.1492 18.2469 12.2923 18.1877 12.3977 18.0822C12.5032 17.9767 12.5625 17.8336 12.5625 17.6844V7.55945C12.5625 7.41026 12.5032 7.26719 12.3977 7.1617C12.2923 7.05621 12.1492 6.99695 12 6.99695C11.8508 6.99695 11.7077 7.05621 11.6023 7.1617C11.4968 7.26719 11.4375 7.41026 11.4375 7.55945V17.6844C11.4375 17.8336 11.4968 17.9767 11.6023 18.0822C11.7077 18.1877 11.8508 18.2469 12 18.2469Z" fill="white"/>
</svg>
