<svg width="8" height="9" viewBox="0 0 8 9" fill="none" xmlns="http://www.w3.org/2000/svg">
<g clip-path="url(#clip0_63_1273)">
<path d="M7.55691 5.65085L6.84582 5.07385C6.85484 4.98487 6.86258 4.88086 6.86258 4.77081C6.86258 4.66075 6.85516 4.55674 6.84582 4.46776L7.55756 3.89044C7.68973 3.78206 7.72583 3.58972 7.6417 3.42951L6.90223 2.10191C6.82325 1.95206 6.65015 1.87513 6.47448 1.94236L5.63541 2.2919C5.47456 2.17148 5.30597 2.0698 5.13158 1.98852L5.00393 1.065C4.98298 0.889721 4.83599 0.757263 4.66225 0.757263H3.17947C3.00572 0.757263 2.85906 0.889721 2.83842 1.06232L2.71045 1.98919C2.54154 2.06814 2.37554 2.16848 2.2076 2.29257L1.36627 1.94203C1.20863 1.87881 1.02006 1.94971 0.941728 2.0989L0.20131 3.42817C0.11396 3.58137 0.150057 3.78038 0.285125 3.89144L0.996215 4.46843C0.984928 4.58115 0.979458 4.67916 0.979458 4.77115C0.979458 4.86314 0.984943 4.96114 0.996215 5.0742L0.284475 5.65152C0.152309 5.76023 0.116528 5.95256 0.200661 6.11244L0.940127 7.44003C1.01911 7.58955 1.19059 7.66714 1.36787 7.59958L2.20695 7.25005C2.36747 7.37013 2.53606 7.47181 2.71045 7.55342L2.8381 8.47661C2.85905 8.65255 3.00572 8.78501 3.17979 8.78501H4.66257C4.83632 8.78501 4.98331 8.65255 5.00393 8.47995L5.1319 7.55342C5.30082 7.47415 5.4665 7.37413 5.63476 7.2497L6.47608 7.60024C6.5167 7.61663 6.55893 7.625 6.60245 7.625C6.72751 7.625 6.84259 7.55408 6.90061 7.4437L7.6433 6.10909C7.72583 5.95255 7.68971 5.76023 7.55691 5.65085ZM3.92085 6.10909C3.20976 6.10909 2.63148 5.50901 2.63148 4.77114C2.63148 4.03326 3.20976 3.43318 3.92085 3.43318C4.63194 3.43318 5.21023 4.03326 5.21023 4.77114C5.21023 5.50901 4.63194 6.10909 3.92085 6.10909Z" fill="black"/>
</g>
<defs>
<clipPath id="clip0_63_1273">
<rect width="7.7363" height="8.02775" fill="white" transform="translate(0.0522461 0.757263)"/>
</clipPath>
</defs>
</svg>
