<svg width="105" height="70" viewBox="0 0 105 70" fill="none" xmlns="http://www.w3.org/2000/svg">
<path d="M0.498535 20.3299C0.498535 17.2003 0.975426 14.5385 1.92921 12.3445C2.91832 10.1183 4.17236 8.27922 5.69135 6.82733C7.21034 5.37544 8.88829 4.23006 10.7252 3.39119C12.5621 2.55232 14.346 1.92316 16.077 1.50373C17.8432 1.08429 19.4152 0.82618 20.7929 0.729387C22.2059 0.632594 23.248 0.584198 23.9192 0.584198H25.7208C26.392 0.584198 27.4341 0.632594 28.8471 0.729387C30.2601 0.82618 31.8144 1.08429 33.51 1.50373C35.2409 1.92316 37.0072 2.55232 38.8088 3.39119C40.6457 4.23006 42.306 5.37544 43.7897 6.82733C45.3086 8.27922 46.545 10.1183 47.4988 12.3445C48.4526 14.5385 48.9295 17.2003 48.9295 20.3299V34.6069H38.0493V36.4386H48.9295V48.8838C48.9295 52.1102 48.4526 54.8527 47.4988 57.1112C46.545 59.3697 45.3086 61.2571 43.7897 62.7735C42.306 64.2577 40.6457 65.4192 38.8088 66.2581C37.0072 67.097 35.2409 67.7422 33.51 68.1939C31.8144 68.6134 30.2601 68.8715 28.8471 68.9683C27.4341 69.0651 26.392 69.1135 25.7208 69.1135H23.9192C23.248 69.1135 22.2059 69.0651 20.7929 68.9683C19.4152 68.8715 17.8432 68.6134 16.077 68.1939C14.346 67.7422 12.5621 67.097 10.7252 66.2581C8.88829 65.4192 7.21034 64.2577 5.69135 62.7735C4.17236 61.2571 2.91832 59.3697 1.92921 57.1112C0.975426 54.8527 0.498535 52.1102 0.498535 48.8838V36.4386H12.3582V34.6069H0.498535V20.3299ZM17.8786 51.4004C17.9845 52.5296 18.3201 53.5298 18.8853 54.401C19.3446 55.143 20.0334 55.8367 20.9519 56.482C21.9057 57.095 23.2127 57.4015 24.873 57.4015C26.4979 57.4015 27.7696 57.095 28.6881 56.482C29.6066 55.8367 30.2954 55.143 30.7546 54.401C31.2845 53.5298 31.6201 52.5296 31.7614 51.4004V36.4386H38.0493V34.6069H31.7614V18.6844C31.6201 17.5552 31.2845 16.555 30.7546 15.6839C30.2954 14.9418 29.6066 14.2642 28.6881 13.6512C27.7696 13.0059 26.4979 12.6833 24.873 12.6833C23.2127 12.6833 21.9057 13.0059 20.9519 13.6512C20.0334 14.2642 19.3446 14.9418 18.8853 15.6839C18.3201 16.555 17.9845 17.5552 17.8786 18.6844V34.6069H12.3582V36.4386H17.8786C17.8786 36.4386 17.8786 36.8962 17.8786 37.1895C17.8786 42.7392 17.8786 51.4004 17.8786 51.4004Z" fill="url(#paint0_linear_57_743)"/>
<path d="M55.6284 20.3299C55.6284 17.2003 56.1053 14.5385 57.0591 12.3445C58.0482 10.1183 59.3023 8.27922 60.8213 6.82733C62.3402 5.37544 64.0182 4.23006 65.8551 3.39119C67.692 2.55232 69.476 1.92316 71.2069 1.50373C72.9732 1.08429 74.5451 0.82618 75.9228 0.729387C77.3358 0.632594 78.3779 0.584198 79.0491 0.584198H80.8507C81.5219 0.584198 82.564 0.632594 83.977 0.729387C85.39 0.82618 86.9443 1.08429 88.6399 1.50373C90.3708 1.92316 92.1371 2.55232 93.9387 3.39119C95.7756 4.23006 97.4359 5.37544 98.9196 6.82733C100.439 8.27922 101.675 10.1183 102.629 12.3445C103.583 14.5385 104.059 17.2003 104.059 20.3299V34.6069L94.9808 34.5614V36.4386H104.059V48.8838C104.059 52.1102 103.583 54.8527 102.629 57.1112C101.675 59.3697 100.439 61.2571 98.9196 62.7735C97.4359 64.2577 95.7756 65.4192 93.9387 66.2581C92.1371 67.097 90.3708 67.7422 88.6399 68.1939C86.9443 68.6134 85.39 68.8715 83.977 68.9683C82.564 69.0651 81.5219 69.1135 80.8507 69.1135H79.0491C78.3779 69.1135 77.3358 69.0651 75.9228 68.9683C74.5451 68.8715 72.9732 68.6134 71.2069 68.1939C69.476 67.7422 67.692 67.097 65.8551 66.2581C64.0182 65.4192 62.3402 64.2577 60.8213 62.7735C59.3023 61.2571 58.0482 59.3697 57.0591 57.1112C56.1053 54.8527 55.6284 52.1102 55.6284 48.8838V36.4386H61.2741V34.6069H55.6284V20.3299ZM73.0085 51.4004C73.1145 52.5296 73.45 53.5298 74.0153 54.401C74.4745 55.143 75.1633 55.8367 76.0818 56.482C77.0356 57.095 78.3426 57.4015 80.0029 57.4015C81.6278 57.4015 82.8996 57.095 83.818 56.482C84.7365 55.8367 85.4253 55.143 85.8845 54.401C86.4144 53.5298 86.75 52.5296 86.8913 51.4004V36.4386H94.9808V34.5614H86.8913V18.6844C86.75 17.5552 86.4144 16.555 85.8845 15.6839C85.4253 14.9418 84.7365 14.2642 83.818 13.6512C82.8996 13.0059 81.6278 12.6833 80.0029 12.6833C78.3426 12.6833 77.0356 13.0059 76.0818 13.6512C75.1633 14.2642 74.4745 14.9418 74.0153 15.6839C73.45 16.555 73.1145 17.5552 73.0085 18.6844V34.6069H61.2741V36.4386H73.0085V51.4004Z" fill="url(#paint1_linear_57_743)"/>
<defs>
<linearGradient id="paint0_linear_57_743" x1="52.094" y1="-28.6776" x2="52.094" y2="95.5435" gradientUnits="userSpaceOnUse">
<stop stop-color="white"/>
<stop offset="1" stop-color="#BCBCBC"/>
</linearGradient>
<linearGradient id="paint1_linear_57_743" x1="52.094" y1="-28.6776" x2="52.094" y2="95.5435" gradientUnits="userSpaceOnUse">
<stop stop-color="white"/>
<stop offset="1" stop-color="#BCBCBC"/>
</linearGradient>
</defs>
</svg>
