<svg width="96" height="70" viewBox="0 0 96 70" fill="none" xmlns="http://www.w3.org/2000/svg">
<path d="M16.5215 22.5444C15.3557 23.5124 14.0838 24.2706 12.706 24.8191C11.3282 25.3676 9.70306 25.6418 7.83063 25.6418C6.77077 25.6418 5.78157 25.4644 4.86302 25.1095C3.9798 24.7223 3.22023 24.2222 2.58431 23.6092C1.94839 22.9639 1.43613 22.2379 1.04751 21.4313C0.694222 20.6247 0.517578 19.7697 0.517578 18.8663C0.517578 17.9629 0.676558 17.1886 0.994517 16.5433C1.31248 15.8657 1.75409 15.285 2.31935 14.801C2.88461 14.3171 3.53819 13.8815 4.28009 13.4943C5.022 13.1071 5.81689 12.7038 6.66478 12.2844C8.43122 11.2197 10.0034 10.1388 11.3812 9.04185C12.7943 7.94487 14.0485 6.92854 15.1437 5.99288C16.2389 5.02495 17.1928 4.20221 18.0053 3.52466C18.8179 2.84711 19.5245 2.37928 20.125 2.12117C20.4783 1.95985 20.7963 1.83079 21.0789 1.734C21.3969 1.60494 21.7148 1.52428 22.0328 1.49202C22.3508 1.42749 22.7041 1.39522 23.0927 1.39522C23.4813 1.36296 23.9759 1.34683 24.5765 1.34683C26.4136 1.34683 27.8621 1.6856 28.9219 2.36315C30.0171 3.0407 30.8297 3.92797 31.3596 5.02495C31.9249 6.08967 32.2781 7.29958 32.4195 8.65468C32.5608 10.0098 32.6314 11.381 32.6314 12.7684V34.5614H22.9321V36.4386H32.6314V57.6802C32.6314 59.0998 32.5608 60.5033 32.4195 61.8907C32.2781 63.2458 31.9249 64.4557 31.3596 65.5204C30.8297 66.5852 30.0171 67.4563 28.9219 68.1338C27.8621 68.7791 26.4136 69.1018 24.5765 69.1018C22.7041 69.1018 21.2379 68.7791 20.178 68.1338C19.1182 67.4563 18.3056 66.5852 17.7404 65.5204C17.2104 64.4557 16.8748 63.2458 16.7335 61.8907C16.5922 60.5033 16.5215 59.0998 16.5215 57.6802V36.4386H22.9321V34.5614H16.5215V22.5444Z" fill="url(#paint0_linear_57_747)"/>
<path d="M70.9342 0.959656C74.9264 0.959656 78.424 1.45975 81.4269 2.45994C84.4652 3.42787 86.9912 4.7991 89.0049 6.57364C91.0187 8.31591 92.5378 10.4131 93.5623 12.8652C94.5869 15.285 95.0991 17.9629 95.0991 20.899C95.0991 22.8348 94.7988 24.6255 94.1982 26.271C93.633 27.9164 92.8734 29.4167 91.9195 30.7718C91.001 32.1269 89.8223 33.4644 88.6211 34.5614C87.5934 34.5614 77.3243 34.6229 75.0677 34.5614C75.0677 35.1246 75.0677 34.9368 75.0677 36.4386C76.5066 36.4386 84.5358 36.4386 86.5913 36.4386C83.6237 38.439 78.7772 40.9673 75.0677 42.1934C73.8312 42.6451 72.5947 43.1936 71.3582 43.8389C70.157 44.4519 69.0795 45.1778 68.1256 46.0167C67.1717 46.8233 66.3945 47.7751 65.7939 48.8721C65.1933 49.9368 64.893 51.1628 64.893 52.5502V55.5508H83.3346C84.8185 55.5508 86.3023 55.6153 87.7861 55.7444C89.2699 55.8734 90.6124 56.1638 91.8136 56.6155C93.0147 57.0672 93.9863 57.7447 94.7282 58.6481C95.4701 59.5193 95.841 60.7131 95.841 62.2295C95.841 63.7782 95.4701 65.0042 94.7282 65.9076C93.9863 66.811 93.0147 67.5047 91.8136 67.9886C90.6124 68.4726 89.2699 68.7791 87.7861 68.9082C86.3023 69.0372 84.8185 69.1018 83.3346 69.1018H56.9441C55.1776 69.1018 53.7115 68.8437 52.5456 68.3274C51.4151 67.7789 50.5142 67.1014 49.843 66.2948C49.1717 65.4559 48.6948 64.5364 48.4122 63.5362C48.1649 62.5037 48.0412 61.4874 48.0412 60.4872V52.7438C48.0412 50.2594 48.4828 47.9364 49.366 45.7747C50.2846 43.5807 51.5564 41.5965 53.1815 39.8219C53.6617 39.2995 54.9978 37.7526 57.4644 36.4386C59.8761 36.4386 71.3582 36.4386 75.0677 36.4386C75.0677 34.9368 75.0677 35.3123 75.0677 34.5614C73.0251 34.5614 68.5802 34.5721 59.6387 34.5614C61.935 33.1418 63.9038 32.3528 66.6948 31.3526C69.4858 30.3524 71.7115 29.4006 73.3719 28.4972C75.0324 27.5615 76.3042 26.6581 77.1874 25.787C78.106 24.8836 78.7066 23.9802 78.9892 23.0768C79.2718 22.1734 79.4132 21.2539 79.4132 20.3182C79.4132 18.6405 79.0952 17.3176 78.4593 16.3497C77.8587 15.3818 77.0991 14.672 76.1806 14.2203C75.2974 13.7363 74.3611 13.4459 73.3719 13.3491C72.4181 13.2201 71.6055 13.1555 70.9342 13.1555C69.1678 13.1555 67.7547 13.3975 66.6948 13.8815C65.6349 14.3332 64.8224 14.9139 64.2571 15.6238C63.7272 16.3336 63.3739 17.124 63.1973 17.9952C63.0559 18.8341 62.9853 19.6407 62.9853 20.415C62.9853 21.6733 62.7203 22.7542 62.1904 23.6576C61.6604 24.5287 60.9892 25.2385 60.1766 25.787C59.3994 26.3355 58.5339 26.7388 57.58 26.9969C56.6614 27.255 55.8135 27.3841 55.0363 27.3841C52.6339 27.3841 50.6909 26.7872 49.2071 25.5934C47.7232 24.3674 46.9813 22.8026 46.9813 20.899C46.9813 20.0601 47.0873 18.9792 47.2993 17.6564C47.5113 16.3336 47.9176 14.9301 48.5181 13.4459C49.1187 11.9618 49.9666 10.4776 51.0618 8.99345C52.157 7.5093 53.5878 6.17033 55.3543 4.97656C57.1207 3.78278 59.2758 2.81485 61.8194 2.07277C64.3631 1.33069 67.4014 0.959656 70.9342 0.959656Z" fill="url(#paint1_linear_57_747)"/>
<defs>
<linearGradient id="paint0_linear_57_747" x1="48.0091" y1="-28.1368" x2="48.0091" y2="95.3825" gradientUnits="userSpaceOnUse">
<stop stop-color="white"/>
<stop offset="1" stop-color="#BCBCBC"/>
</linearGradient>
<linearGradient id="paint1_linear_57_747" x1="48.0091" y1="-28.1368" x2="48.0091" y2="95.3825" gradientUnits="userSpaceOnUse">
<stop stop-color="white"/>
<stop offset="1" stop-color="#BCBCBC"/>
</linearGradient>
</defs>
</svg>
