<svg width="31" height="31" viewBox="0 0 31 31" fill="none" xmlns="http://www.w3.org/2000/svg">
<path d="M19.3035 15.1916C19.2932 14.9154 19.1887 14.6796 18.9738 14.4683L12.7838 8.51436C12.6009 8.34227 12.387 8.24936 12.1266 8.25155C11.5979 8.25599 11.1909 8.66979 11.1954 9.19852C11.1975 9.45105 11.3021 9.68693 11.4851 9.86691L17.0544 15.2104L11.5756 20.6467C11.3956 20.8297 11.2949 21.0594 11.2971 21.3198C11.3015 21.8486 11.7153 22.2555 12.2441 22.2511C12.4966 22.2489 12.7168 22.1524 12.8968 21.9772L18.9859 15.9124C19.2052 15.7054 19.3058 15.4678 19.3035 15.1916Z" fill="#4C56BB"/>
</svg>
