<svg width="31" height="31" viewBox="0 0 31 31" fill="none" xmlns="http://www.w3.org/2000/svg">
<path d="M11.2473 15.5696C11.2575 15.8458 11.3621 16.0816 11.577 16.2929L17.7669 22.2468C17.9499 22.4189 18.1638 22.5118 18.4242 22.5097C18.9529 22.5052 19.3598 22.0914 19.3554 21.5627C19.3533 21.3102 19.2487 21.0743 19.0657 20.8943L13.4964 15.5508L18.9752 10.1145C19.1552 9.93148 19.2559 9.70177 19.2537 9.44135C19.2492 8.91262 18.8354 8.50571 18.3067 8.51014C18.0542 8.51226 17.834 8.60881 17.654 8.78395L11.5649 14.8488C11.3456 15.0558 11.245 15.2934 11.2473 15.5696Z" fill="#4C56BB"/>
</svg>
