<svg width="24" height="25" viewBox="0 0 24 25" fill="none" xmlns="http://www.w3.org/2000/svg">
<rect width="24" height="24.1188" rx="12" fill="white" fill-opacity="0.15"/>
<path fill-rule="evenodd" clip-rule="evenodd" d="M8.22678 13.9112C8.27903 13.8588 8.3411 13.8172 8.40944 13.7889C8.47778 13.7605 8.55104 13.7459 8.62503 13.7459C8.69902 13.7459 8.77228 13.7605 8.84062 13.7889C8.90895 13.8172 8.97103 13.8588 9.02328 13.9112L12 16.889L14.9768 13.9112C15.0824 13.8055 15.2257 13.7462 15.375 13.7462C15.5244 13.7462 15.6677 13.8055 15.7733 13.9112C15.8789 14.0168 15.9382 14.16 15.9382 14.3094C15.9382 14.4588 15.8789 14.602 15.7733 14.7077L12.3983 18.0827C12.346 18.1351 12.284 18.1766 12.2156 18.205C12.1473 18.2333 12.074 18.2479 12 18.2479C11.926 18.2479 11.8528 18.2333 11.7844 18.205C11.7161 18.1766 11.654 18.1351 11.6018 18.0827L8.22678 14.7077C8.17439 14.6554 8.13283 14.5933 8.10448 14.525C8.07612 14.4567 8.06152 14.3834 8.06152 14.3094C8.06152 14.2354 8.07612 14.1622 8.10448 14.0938C8.13283 14.0255 8.17439 13.9634 8.22678 13.9112Z" fill="white"/>
<path fill-rule="evenodd" clip-rule="evenodd" d="M12 5.87192C12.1492 5.87192 12.2923 5.93118 12.3977 6.03667C12.5032 6.14216 12.5625 6.28523 12.5625 6.43442V16.5594C12.5625 16.7086 12.5032 16.8517 12.3977 16.9572C12.2923 17.0627 12.1492 17.1219 12 17.1219C11.8508 17.1219 11.7077 17.0627 11.6023 16.9572C11.4968 16.8517 11.4375 16.7086 11.4375 16.5594V6.43442C11.4375 6.28523 11.4968 6.14216 11.6023 6.03667C11.7077 5.93118 11.8508 5.87192 12 5.87192Z" fill="white"/>
</svg>
